PathFileType	4	(X/Y/Z)	Patient4_TMGait_0pt3_01_left_12.trc.trc
DataRate	CameraRate	NumFrames	NumMarkers	Units	OrigDataRate	OrigDataStartFrame	OrigNumFrames
54.263565891473	54.263565891473	4	33	mm	54.263565891473	106	       141
Frame#	Time	Sacral			L.Shoulder			Chest			R.Shoulder			Neck			R.ASIS			L.ASIS			R.Thigh.Superior			R.Thigh.Lateral			R.Thigh.Inferior			R.Patella			L.Thigh.Superior			L.Thigh.Lateral			L.Thigh.Inferior			L.Patella			L.Shank.Superior			L.Shank.Lateral			L.Shank.Inferior			R.Shank.Superior			R.Shank.Lateral			R.Shank.Inferior			R.Heel			R.Midfoot.Superior			R.Midfoot.Lateral			R.Toe			L.Heel			L.Midfoot.Lateral			L.Midfoot.Superior			L.Toe			L.Elbow			L.Wrist			R.Elbow			R.Wrist			
		X1	Y1	Z1	X2	Y2	Z2	X3	Y3	Z3	X4	Y4	Z4	X5	Y5	Z5	X6	Y6	Z6	X7	Y7	Z7	X8	Y8	Z8	X9	Y9	Z9	X10	Y10	Z10	X11	Y11	Z11	X12	Y12	Z12	X13	Y13	Z13	X14	Y14	Z14	X15	Y15	Z15	X16	Y16	Z16	X17	Y17	Z17	X18	Y18	Z18	X19	Y19	Z19	X20	Y20	Z20	X21	Y21	Z21	X22	Y22	Z22	X23	Y23	Z23	X24	Y24	Z24	X25	Y25	Z25	X26	Y26	Z26	X27	Y27	Z27	X28	Y28	Z28	X29	Y29	Z29	X30	Y30	Z30	X31	Y31	Z31	X32	Y32	Z32	X33	Y33	Z33	

106	24.185000000000	729.348312301390	986.859096880107	560.751649645107	921.667002762043	1418.827349876030	392.671563654372	1001.443548428207	1353.997762564541	567.727176579819	893.828131217227	1427.830890173569	727.397738658928	888.438841060652	1483.205979847372	548.131375901603	952.683122638530	936.324656659787	699.174623370913	958.545711592986	949.436119598426	424.072174486146	1003.890758980894	733.824939930995	664.843309455620	920.365061297624	617.643012418005	708.819419350980	1005.853362377940	570.655293879128	634.658684669027	1005.713202560796	475.209949076690	636.715463700136	1035.686367127325	756.550789695732	463.885861309103	991.479044268240	629.393723561751	385.207802264826	1082.409637672243	562.176879913922	462.247069010490	1088.063595246345	470.760801645422	453.347688599735	1015.801213053101	411.570738002336	433.189638875114	874.338160603646	386.143799135492	372.347766934116	847.554409758028	254.476438249662	414.974275493252	960.454513652856	388.928526228006	635.252928956279	868.553711898427	295.417711347739	683.838420639030	900.130917869605	197.846805809015	620.539669865942	747.375119805394	45.258869687175	571.249059226591	913.084426981393	95.696893041236	629.580691048735	819.642877016540	37.745273500171	656.734546393166	1027.175306353458	40.479136169720	676.643669574720	650.675871057643	205.860102472093	437.838797504148	707.242127776893	161.809535430000	356.116502773493	811.401196144849	156.779726993225	382.450976189260	878.468615893261	39.435435293280	346.548501309510	932.012457843266	1058.819549692375	294.854751810756	1021.272360422412	814.697924601911	311.440119675082	873.126422549500	1088.616308794951	864.118765091043	1108.067027158858	993.737310254701	897.408891238533	
107	24.203428571429	727.407746241303	987.196019679493	563.373794337212	919.399255224460	1418.153500514762	392.949448976963	1001.299001226950	1353.343968971428	567.037571363807	896.054156853325	1427.763505789542	728.076203832038	888.500761487906	1482.967641441848	548.717558524752	951.776648273485	935.622758578854	699.618994273838	955.316353325138	949.313458190979	424.350683443738	1001.656856729147	732.850747111180	664.831884158195	917.844176999277	617.026839192871	709.126337987361	1002.590130549341	569.754149543499	634.324546112554	1001.985539646102	474.319021431565	636.155943867757	1034.981152374568	759.612217594338	465.168408954344	993.568502489353	631.583335262222	386.698506346154	1085.793448587916	566.393751551112	463.795997447586	1093.756304298286	475.327583241086	455.081868914287	1023.680385125642	414.244930767797	435.041356861841	883.130798131889	383.272574170283	375.079750374607	862.069694777601	250.801323029833	417.991552303188	956.240524366255	388.218001763788	634.974123392743	864.168857680013	295.026481258443	683.946791606684	895.031822846517	197.396867892301	620.444170735012	741.686321746881	45.078648904602	571.389283898202	907.302232219832	95.399106631049	629.308341539938	814.001889803979	37.625173150643	656.890741194256	1021.569742367943	40.548140269468	676.667126071262	667.623331343140	192.447335675326	441.895238900732	726.107385737963	152.372327948878	359.574586315195	830.235016338986	153.037421305079	385.568739214595	903.375000219210	40.257545689461	348.445703362396	918.945110081981	1058.038940917024	295.250009281377	990.157540429622	807.573471891569	310.268256928449	885.242528002066	1088.679666386843	865.996961514347	1125.421666664283	1007.761428634706	894.245978251081	
108	24.221857142857	725.644337515923	988.011904633125	565.822431462751	917.049534965825	1417.911616987547	393.034916297161	1001.233308422331	1353.126384760617	566.039077956700	898.500993613753	1428.133435642133	728.476970656988	888.587982715231	1483.116812739370	549.067687512264	950.982711990464	935.188586281030	699.728899099477	952.122164251203	949.618172368099	424.382082211948	999.120444560537	732.013428133604	664.499871459941	914.878650451449	616.716202146212	709.292441555985	998.742238650975	569.012145312079	633.819743608018	997.533917617294	473.704025798683	635.489182030578	1033.728475570734	762.689246913063	466.151817064106	994.808612522576	634.020826516339	387.718191761327	1087.916771586131	570.575689840051	464.920200407242	1098.169615140368	480.147661651419	456.320135032368	1030.827183472382	417.109451670714	436.341031078259	891.932404016307	379.412716527755	377.040575920240	877.682180325093	246.285038880536	420.367814324016	951.483411419280	387.795772636016	634.649367680685	859.396631758860	294.799420835772	684.020500432393	889.728686521261	197.124647719894	620.359520697548	736.019531620700	44.952399935229	571.543908376758	901.559711595294	95.141728167027	629.078145681044	808.371400209283	37.536469344106	657.041554037682	1015.971356083897	40.586582717333	676.688677147663	686.720906945460	176.917556745237	445.114381185313	747.253326885241	141.110640613112	362.379971524306	850.984782300950	148.201366374419	388.150662982500	930.768212154246	40.908760727333	350.218953827480	905.075005028621	1058.179566112497	295.184424147626	959.635503746848	803.258833598574	309.014867880720	897.805430381888	1089.498843568262	867.465758261741	1142.308785221315	1022.732355761596	890.195058022487	
109	24.240285714286	724.089715224634	989.278816415420	568.089301080308	914.626748825528	1418.107870539209	392.945958496894	1001.243342294993	1353.326529697819	564.740192453575	901.168545438138	1428.908170198473	728.607841992226	888.697964423754	1483.636378778971	549.205897107893	950.325127953982	935.017539469161	699.504946246612	948.999354528453	950.326715600927	424.157561886837	996.298224667171	731.311882640631	663.884278114496	911.468922810526	616.718971487629	709.344505928363	994.311795739900	568.428826317422	633.189262744660	992.347178691213	473.374435669054	634.766096803591	1031.969216484707	765.688254287295	466.819571809402	995.191037427256	636.611160777589	388.229849440146	1088.782730688487	574.581761237801	465.580782802605	1101.276518503080	485.094031879633	457.022195226505	1037.166477032986	420.120775471325	437.059308949427	900.780728150220	374.738829389885	378.166385087058	894.245426429746	241.242673021022	422.055135673454	946.184953437991	387.663743538975	634.316772560980	854.229548531449	294.739027146462	684.077672283942	884.223228243415	197.033292543952	620.301706596940	730.378733282360	44.878043567411	571.718085429521	895.863638208235	94.936531643796	628.909751383727	802.753206414830	37.476156040081	657.185719376437	1010.380347821180	40.594852644170	676.709509383941	707.909361112082	159.979785718994	447.430130394435	770.539666321745	128.632541497349	364.486308344440	873.421095544032	142.661708390811	390.159231608790	960.130388075288	41.599133457105	351.869963899418	890.566883428639	1059.293770294001	294.734169428408	930.110042926359	801.499861888629	307.715874844450	910.698913002290	1091.082873431089	868.539113159369	1158.577830064163	1038.542677570233	885.358078435803	
